<svg xmlns="http://www.w3.org/2000/svg" version="1.1" xmlns:xlink="http://www.w3.org/1999/xlink" xmlns:svgjs="http://svgjs.dev/svgjs" width="1500" height="303" viewBox="0 0 1500 303"><g transform="matrix(1,0,0,1,-0.9090909090909918,-0.8602730290354543)"><svg viewBox="0 0 396 80" data-background-color="#ffffff" preserveAspectRatio="xMidYMid meet" height="303" width="1500" xmlns="http://www.w3.org/2000/svg" xmlns:xlink="http://www.w3.org/1999/xlink"><g id="tight-bounds" transform="matrix(1,0,0,1,0.2400000000000091,0.22713479314467122)"><svg viewBox="0 0 395.52 79.54573041371067" height="79.54573041371067" width="395.52"><g><svg viewBox="0 0 571.1074744922507 114.85932747576791" height="79.54573041371067" width="395.52"><g transform="matrix(1,0,0,1,175.5874744922508,23.644726308987487)"><svg viewBox="0 0 395.5199999999999 67.56987485779294" height="67.56987485779294" width="395.5199999999999"><g id="textblocktransform"><svg viewBox="0 0 395.5199999999999 67.56987485779294" height="67.56987485779294" width="395.5199999999999" id="textblock"><g><svg viewBox="0 0 395.5199999999999 67.56987485779294" height="67.56987485779294" width="395.5199999999999"><g transform="matrix(1,0,0,1,0,0)"><svg width="395.5199999999999" viewBox="1.4 -34.8 263.67 45.05" height="67.56987485779294" data-palette-color="url(#4f4ce4f2-d8c3-4f8a-af7a-0c23dab38247)"><g class="wordmark-text-0" data-fill-palette-color="primary" id="text-0"></g></svg></g></svg></g></svg></g></svg></g><g><svg viewBox="0 0 159.63584871532248 114.85932747576791" height="114.85932747576791" width="159.63584871532248"><g><svg xmlns="http://www.w3.org/2000/svg" xmlns:xlink="http://www.w3.org/1999/xlink" version="1.1" x="0" y="0" viewBox="3.909 16.83700000000001 92.181 66.32499999999999" enable-background="new 0 0 100 100" xml:space="preserve" height="114.85932747576791" width="159.63584871532248" class="icon-icon-0" data-fill-palette-color="accent" id="icon-0"></svg></g></svg></g></svg></g><defs></defs><mask id="75723da3-0fb0-40d7-b307-9f0f86bfc9d1"><g id="SvgjsG1128"><svg viewBox="0 0 395.52 79.54573041371067" height="79.54573041371067" width="395.52"><g><svg viewBox="0 0 571.1074744922507 114.85932747576791" height="79.54573041371067" width="395.52"><g transform="matrix(1,0,0,1,175.5874744922508,23.644726308987487)"><svg viewBox="0 0 395.5199999999999 67.56987485779294" height="67.56987485779294" width="395.5199999999999"><g id="SvgjsG1127"><svg viewBox="0 0 395.5199999999999 67.56987485779294" height="67.56987485779294" width="395.5199999999999" id="SvgjsSvg1126"><g><svg viewBox="0 0 395.5199999999999 67.56987485779294" height="67.56987485779294" width="395.5199999999999"><g transform="matrix(1,0,0,1,0,0)"><svg width="395.5199999999999" viewBox="1.4 -34.8 263.67 45.05" height="67.56987485779294" data-palette-color="url(#4f4ce4f2-d8c3-4f8a-af7a-0c23dab38247)"><g class="wordmark-text-0" data-fill-palette-color="primary" id="SvgjsG1125"><path d="M11.1-34.8Q13.7-34.8 15.6-33.85 17.5-32.9 19.25-31L19.25-31 17.6-29.35Q16.05-30.9 14.53-31.6 13-32.3 11.1-32.3L11.1-32.3Q8.6-32.3 7.03-30.68 5.45-29.05 5.45-26.5L5.45-26.5Q5.45-23.95 6.88-22.38 8.3-20.8 11.95-19.45L11.95-19.45Q16.15-17.85 18.13-15.6 20.1-13.35 20.1-9.35L20.1-9.35Q20.1-6.6 18.9-4.35 17.7-2.1 15.53-0.78 13.35 0.55 10.55 0.55L10.55 0.55Q7.75 0.55 5.53-0.55 3.3-1.65 1.4-3.75L1.4-3.75 3.05-5.4Q4.8-3.7 6.53-2.83 8.25-1.95 10.5-1.95L10.5-1.95Q13.5-1.95 15.3-3.95 17.1-5.95 17.1-9.25L17.1-9.25Q17.1-12.2 15.7-13.9 14.3-15.6 10.6-17.05L10.6-17.05Q6.3-18.7 4.42-20.88 2.55-23.05 2.55-26.4L2.55-26.4Q2.55-28.65 3.65-30.58 4.75-32.5 6.7-33.65 8.65-34.8 11.1-34.8L11.1-34.8ZM35.45-2.9L36.6-1.1Q34.5 0.55 31.95 0.55L31.95 0.55Q29.4 0.55 27.92-1.05 26.45-2.65 26.45-5.35L26.45-5.35 26.45-23.85 22.95-23.85 22.95-26.15 26.45-26.15 26.45-32.4 29.25-32.75 29.25-26.15 34.75-26.15 34.4-23.85 29.25-23.85 29.25-5.35Q29.25-3.7 30-2.78 30.75-1.85 32.25-1.85L32.25-1.85Q33.85-1.85 35.45-2.9L35.45-2.9ZM49.5-26.7Q50.4-26.7 51.5-26.4L51.5-26.4 51-23.8Q50.1-24.05 49.2-24.05L49.2-24.05Q47.05-24.05 45.7-22.18 44.35-20.3 43.5-16.5L43.5-16.5 43.5 0 40.7 0 40.7-26.15 43.1-26.15 43.35-20.9Q44.3-23.85 45.8-25.28 47.3-26.7 49.5-26.7L49.5-26.7ZM71.84-14.05Q71.84-12.95 71.74-11.95L71.74-11.95 57.44-11.95Q57.64-6.55 59.32-4.2 60.99-1.85 63.89-1.85L63.89-1.85Q65.59-1.85 66.89-2.43 68.19-3 69.59-4.25L69.59-4.25 70.99-2.6Q69.44-1.05 67.72-0.25 65.99 0.55 63.84 0.55L63.84 0.55Q59.49 0.55 57.02-2.88 54.54-6.3 54.54-12.85L54.54-12.85Q54.54-19.5 56.92-23.1 59.29-26.7 63.44-26.7L63.44-26.7Q67.54-26.7 69.69-23.48 71.84-20.25 71.84-14.05L71.84-14.05ZM69.09-14.15L69.09-14.95Q69.09-19.65 67.69-22 66.29-24.35 63.44-24.35L63.44-24.35Q57.79-24.35 57.44-14.15L57.44-14.15 69.09-14.15ZM92.09-5Q92.09-3.4 92.52-2.63 92.94-1.85 93.84-1.4L93.84-1.4 93.24 0.55Q91.64 0.15 90.79-0.8 89.94-1.75 89.69-3.55L89.69-3.55Q87.34 0.55 83.14 0.55L83.14 0.55Q80.04 0.55 78.19-1.6 76.34-3.75 76.34-7.25L76.34-7.25Q76.34-11.35 78.82-13.53 81.29-15.7 85.89-15.7L85.89-15.7 89.34-15.7 89.34-18.7Q89.34-21.55 88.22-22.95 87.09-24.35 84.69-24.35L84.69-24.35Q81.94-24.35 78.69-22.95L78.69-22.95 77.89-24.95Q81.64-26.7 84.94-26.7L84.94-26.7Q88.54-26.7 90.32-24.68 92.09-22.65 92.09-18.9L92.09-18.9 92.09-5ZM83.59-1.7Q87.39-1.7 89.34-6.55L89.34-6.55 89.34-13.65 86.14-13.65Q82.64-13.65 80.97-12.1 79.29-10.55 79.29-7.35L79.29-7.35Q79.29-4.6 80.42-3.15 81.54-1.7 83.59-1.7L83.59-1.7ZM121.64-26.7Q124.29-26.7 125.79-24.63 127.29-22.55 127.29-19.15L127.29-19.15 127.29 0 124.54 0 124.54-18.8Q124.54-21.6 123.66-23 122.79-24.4 121.14-24.4L121.14-24.4Q117.89-24.4 115.29-19L115.29-19 115.29 0 112.54 0 112.54-18.8Q112.54-21.6 111.64-23 110.74-24.4 109.09-24.4L109.09-24.4Q105.84-24.4 103.24-19L103.24-19 103.24 0 100.49 0 100.49-26.15 102.89-26.15 103.14-21.85Q105.84-26.7 109.64-26.7L109.64-26.7Q111.69-26.7 113.09-25.35 114.49-24 114.99-21.6L114.99-21.6Q117.74-26.7 121.64-26.7L121.64-26.7ZM141.04-26.7Q144.94-26.7 147.99-23.8L147.99-23.8 146.69-22.1Q145.24-23.3 143.96-23.85 142.69-24.4 141.09-24.4L141.09-24.4Q139.04-24.4 137.76-23.2 136.49-22 136.49-19.9L136.49-19.9Q136.49-18.1 137.61-17 138.74-15.9 141.74-14.8L141.74-14.8Q145.39-13.45 146.99-11.73 148.59-10 148.59-7L148.59-7Q148.59-3.55 146.31-1.5 144.04 0.55 140.64 0.55L140.64 0.55Q136.14 0.55 132.79-2.8L132.79-2.8 134.34-4.4Q135.79-3.1 137.26-2.43 138.74-1.75 140.59-1.75L140.59-1.75Q142.89-1.75 144.31-3.1 145.74-4.45 145.74-6.9L145.74-6.9Q145.74-8.45 145.24-9.43 144.74-10.4 143.54-11.18 142.34-11.95 140.09-12.8L140.09-12.8Q136.64-14.05 135.16-15.7 133.69-17.35 133.69-19.85L133.69-19.85Q133.69-22.8 135.79-24.75 137.89-26.7 141.04-26.7L141.04-26.7ZM163.98-26.7Q167.78-26.7 169.78-23.3 171.78-19.9 171.78-13.2L171.78-13.2Q171.78-6.6 169.61-3.03 167.43 0.55 163.53 0.55L163.53 0.55Q161.63 0.55 160.13-0.4 158.63-1.35 157.53-2.95L157.53-2.95 157.53 9.85 154.73 10.25 154.73-26.15 157.18-26.15 157.38-22.5Q159.93-26.7 163.98-26.7L163.98-26.7ZM163.08-1.85Q168.78-1.85 168.78-13.2L168.78-13.2Q168.78-19 167.46-21.68 166.13-24.35 163.48-24.35L163.48-24.35Q160.08-24.35 157.53-19.95L157.53-19.95 157.53-5.75Q159.83-1.85 163.08-1.85L163.08-1.85ZM194.18-14.05Q194.18-12.95 194.08-11.95L194.08-11.95 179.78-11.95Q179.98-6.55 181.66-4.2 183.33-1.85 186.23-1.85L186.23-1.85Q187.93-1.85 189.23-2.43 190.53-3 191.93-4.25L191.93-4.25 193.33-2.6Q191.78-1.05 190.06-0.25 188.33 0.55 186.18 0.55L186.18 0.55Q181.83 0.55 179.36-2.88 176.88-6.3 176.88-12.85L176.88-12.85Q176.88-19.5 179.26-23.1 181.63-26.7 185.78-26.7L185.78-26.7Q189.88-26.7 192.03-23.48 194.18-20.25 194.18-14.05L194.18-14.05ZM191.43-14.15L191.43-14.95Q191.43-19.65 190.03-22 188.63-24.35 185.78-24.35L185.78-24.35Q180.13-24.35 179.78-14.15L179.78-14.15 191.43-14.15ZM208.38-26.7Q210.18-26.7 211.63-26.08 213.08-25.45 214.48-24.05L214.48-24.05 213.13-22.35Q212.03-23.35 210.9-23.83 209.78-24.3 208.43-24.3L208.43-24.3Q205.43-24.3 203.73-21.55 202.03-18.8 202.03-12.95L202.03-12.95Q202.03-1.9 208.38-1.9L208.38-1.9Q210.93-1.9 213.23-3.95L213.23-3.95 214.63-2.25Q211.83 0.55 208.38 0.55L208.38 0.55Q203.98 0.55 201.5-2.83 199.03-6.2 199.03-12.9L199.03-12.9Q199.03-19.55 201.53-23.13 204.03-26.7 208.38-26.7L208.38-26.7ZM228.83-2.9L229.98-1.1Q227.88 0.55 225.33 0.55L225.33 0.55Q222.78 0.55 221.3-1.05 219.83-2.65 219.83-5.35L219.83-5.35 219.83-23.85 216.33-23.85 216.33-26.15 219.83-26.15 219.83-32.4 222.63-32.75 222.63-26.15 228.13-26.15 227.78-23.85 222.63-23.85 222.63-5.35Q222.63-3.7 223.38-2.78 224.13-1.85 225.63-1.85L225.63-1.85Q227.23-1.85 228.83-2.9L228.83-2.9ZM242.87-26.7Q243.77-26.7 244.87-26.4L244.87-26.4 244.37-23.8Q243.47-24.05 242.57-24.05L242.57-24.05Q240.42-24.05 239.07-22.18 237.72-20.3 236.87-16.5L236.87-16.5 236.87 0 234.07 0 234.07-26.15 236.47-26.15 236.72-20.9Q237.67-23.85 239.17-25.28 240.67-26.7 242.87-26.7L242.87-26.7ZM263.32-5Q263.32-3.4 263.75-2.63 264.17-1.85 265.07-1.4L265.07-1.4 264.47 0.55Q262.87 0.15 262.02-0.8 261.17-1.75 260.92-3.55L260.92-3.55Q258.57 0.55 254.37 0.55L254.37 0.55Q251.27 0.55 249.42-1.6 247.57-3.75 247.57-7.25L247.57-7.25Q247.57-11.35 250.05-13.53 252.52-15.7 257.12-15.7L257.12-15.7 260.57-15.7 260.57-18.7Q260.57-21.55 259.45-22.95 258.32-24.35 255.92-24.35L255.92-24.35Q253.17-24.35 249.92-22.95L249.92-22.95 249.12-24.95Q252.87-26.7 256.17-26.7L256.17-26.7Q259.77-26.7 261.55-24.68 263.32-22.65 263.32-18.9L263.32-18.9 263.32-5ZM254.82-1.7Q258.62-1.7 260.57-6.55L260.57-6.55 260.57-13.65 257.37-13.65Q253.87-13.65 252.2-12.1 250.52-10.55 250.52-7.35L250.52-7.35Q250.52-4.6 251.65-3.15 252.77-1.7 254.82-1.7L254.82-1.7Z" fill="white"></path></g></svg></g></svg></g></svg></g></svg></g><g><svg viewBox="0 0 159.63584871532248 114.85932747576791" height="114.85932747576791" width="159.63584871532248"><g><svg xmlns="http://www.w3.org/2000/svg" xmlns:xlink="http://www.w3.org/1999/xlink" version="1.1" x="0" y="0" viewBox="3.909 16.83700000000001 92.181 66.32499999999999" enable-background="new 0 0 100 100" xml:space="preserve" height="114.85932747576791" width="159.63584871532248" class="icon-icon-0" data-fill-palette-color="accent" id="SvgjsSvg1124"><g fill="black"><path d="M81.186 83.162c-0.507 0-1.013-0.193-1.398-0.579-0.771-0.772-0.771-2.024 0-2.795 7.964-7.965 12.35-18.543 12.35-29.788 0-11.246-4.386-21.825-12.35-29.789-0.771-0.771-0.771-2.023 0-2.795 0.771-0.772 2.024-0.772 2.796 0C91.293 26.127 96.09 37.697 96.09 50c0 12.302-4.797 23.873-13.507 32.583C82.197 82.969 81.69 83.162 81.186 83.162z" fill="black"></path></g><g fill="black"><path d="M18.814 83.162c-0.506 0-1.013-0.193-1.398-0.579C8.706 73.873 3.909 62.302 3.909 50c0-12.303 4.797-23.873 13.507-32.583 0.772-0.772 2.023-0.771 2.796 0 0.771 0.772 0.771 2.023 0 2.795C12.248 28.175 7.862 38.754 7.862 50c0 11.245 4.386 21.823 12.35 29.788 0.771 0.771 0.771 2.022 0 2.795C19.826 82.969 19.32 83.162 18.814 83.162z" fill="black"></path></g><g fill="black"><path d="M26.61 75.366c-0.506 0-1.012-0.194-1.397-0.58-6.627-6.626-10.275-15.429-10.275-24.787 0-9.358 3.648-18.161 10.275-24.787 0.771-0.772 2.023-0.771 2.795 0 0.771 0.772 0.771 2.024 0 2.796-5.879 5.879-9.117 13.689-9.117 21.991 0 8.303 3.238 16.113 9.117 21.991 0.772 0.772 0.772 2.024 0 2.796C27.622 75.172 27.116 75.366 26.61 75.366z" fill="black"></path></g><g fill="black"><path d="M73.389 75.366c-0.507 0-1.012-0.194-1.397-0.58-0.772-0.771-0.772-2.023 0-2.796 5.879-5.878 9.118-13.688 9.118-21.991 0-8.301-3.238-16.112-9.118-21.991-0.772-0.772-0.772-2.023 0-2.796 0.772-0.771 2.022-0.771 2.795 0 6.626 6.626 10.275 15.429 10.275 24.787 0 9.358-3.649 18.161-10.275 24.787C74.4 75.172 73.895 75.366 73.389 75.366z" fill="black"></path></g><g fill="black"><path d="M65.592 67.568c-0.506 0-1.012-0.192-1.396-0.578-0.773-0.772-0.773-2.023 0-2.796C67.989 60.399 70.08 55.359 70.08 50c0-5.359-2.09-10.4-5.885-14.195-0.773-0.772-0.773-2.024 0-2.796 0.771-0.771 2.022-0.771 2.795 0 4.541 4.542 7.042 10.577 7.042 16.991 0 6.415-2.501 12.448-7.043 16.99C66.604 67.376 66.098 67.568 65.592 67.568z" fill="black"></path></g><g fill="black"><path d="M34.406 67.568c-0.506 0-1.012-0.192-1.397-0.578-9.368-9.368-9.368-24.612 0-33.981 0.772-0.771 2.024-0.771 2.796 0 0.771 0.772 0.771 2.023 0 2.796-7.828 7.827-7.828 20.563 0 28.391 0.771 0.772 0.771 2.022 0 2.795C35.418 67.376 34.912 67.568 34.406 67.568z" fill="black"></path></g><polygon points="58.564,50 43.679,57.278 43.679,50 43.679,42.72 " fill="black"></polygon><path d="M61.502 38.497c-6.357-6.357-16.646-6.357-23.005 0-6.357 6.358-6.357 16.648 0.001 23.006 6.357 6.356 16.646 6.356 23.004 0C67.86 55.145 67.86 44.854 61.502 38.497zM58.729 58.729c-4.824 4.824-12.634 4.824-17.46 0-4.825-4.825-4.825-12.635 0-17.459 4.826-4.825 12.635-4.825 17.46 0C63.555 46.095 63.555 53.904 58.729 58.729z" fill="black"></path></svg></g></svg></g></svg></g><defs><mask></mask></defs></svg><rect width="395.52" height="79.54573041371067" fill="black" stroke="none" visibility="hidden"></rect></g></mask><linearGradient x1="0" x2="1" y1="0.5" y2="0.5" id="4f4ce4f2-d8c3-4f8a-af7a-0c23dab38247"><stop stop-color="#ffa62e" offset="0"></stop><stop stop-color="#f71b3d" offset="1"></stop></linearGradient><rect width="395.52" height="79.54573041371067" fill="url(#4f4ce4f2-d8c3-4f8a-af7a-0c23dab38247)" mask="url(#75723da3-0fb0-40d7-b307-9f0f86bfc9d1)" data-fill-palette-color="primary"></rect><mask id="bd8954ec-c112-403a-8c7e-4fdb216bcee1"><g id="SvgjsG1138"><svg viewBox="0 0 395.52 79.54573041371067" height="79.54573041371067" width="395.52"><g><svg viewBox="0 0 571.1074744922507 114.85932747576791" height="79.54573041371067" width="395.52"><g transform="matrix(1,0,0,1,175.5874744922508,23.644726308987487)"><svg viewBox="0 0 395.5199999999999 67.56987485779294" height="67.56987485779294" width="395.5199999999999"><g id="SvgjsG1137"><svg viewBox="0 0 395.5199999999999 67.56987485779294" height="67.56987485779294" width="395.5199999999999" id="SvgjsSvg1136"><g><svg viewBox="0 0 395.5199999999999 67.56987485779294" height="67.56987485779294" width="395.5199999999999"><g transform="matrix(1,0,0,1,0,0)"><svg width="395.5199999999999" viewBox="1.4 -34.8 263.67 45.05" height="67.56987485779294" data-palette-color="url(#4f4ce4f2-d8c3-4f8a-af7a-0c23dab38247)"><g class="wordmark-text-0" data-fill-palette-color="primary" id="SvgjsG1135"></g></svg></g></svg></g></svg></g></svg></g><g><svg viewBox="0 0 159.63584871532248 114.85932747576791" height="114.85932747576791" width="159.63584871532248"><g><svg xmlns="http://www.w3.org/2000/svg" xmlns:xlink="http://www.w3.org/1999/xlink" version="1.1" x="0" y="0" viewBox="3.909 16.83700000000001 92.181 66.32499999999999" enable-background="new 0 0 100 100" xml:space="preserve" height="114.85932747576791" width="159.63584871532248" class="icon-icon-0" data-fill-palette-color="accent" id="SvgjsSvg1134"><g fill="white"><path d="M81.186 83.162c-0.507 0-1.013-0.193-1.398-0.579-0.771-0.772-0.771-2.024 0-2.795 7.964-7.965 12.35-18.543 12.35-29.788 0-11.246-4.386-21.825-12.35-29.789-0.771-0.771-0.771-2.023 0-2.795 0.771-0.772 2.024-0.772 2.796 0C91.293 26.127 96.09 37.697 96.09 50c0 12.302-4.797 23.873-13.507 32.583C82.197 82.969 81.69 83.162 81.186 83.162z" fill="white"></path></g><g fill="white"><path d="M18.814 83.162c-0.506 0-1.013-0.193-1.398-0.579C8.706 73.873 3.909 62.302 3.909 50c0-12.303 4.797-23.873 13.507-32.583 0.772-0.772 2.023-0.771 2.796 0 0.771 0.772 0.771 2.023 0 2.795C12.248 28.175 7.862 38.754 7.862 50c0 11.245 4.386 21.823 12.35 29.788 0.771 0.771 0.771 2.022 0 2.795C19.826 82.969 19.32 83.162 18.814 83.162z" fill="white"></path></g><g fill="white"><path d="M26.61 75.366c-0.506 0-1.012-0.194-1.397-0.58-6.627-6.626-10.275-15.429-10.275-24.787 0-9.358 3.648-18.161 10.275-24.787 0.771-0.772 2.023-0.771 2.795 0 0.771 0.772 0.771 2.024 0 2.796-5.879 5.879-9.117 13.689-9.117 21.991 0 8.303 3.238 16.113 9.117 21.991 0.772 0.772 0.772 2.024 0 2.796C27.622 75.172 27.116 75.366 26.61 75.366z" fill="white"></path></g><g fill="white"><path d="M73.389 75.366c-0.507 0-1.012-0.194-1.397-0.58-0.772-0.771-0.772-2.023 0-2.796 5.879-5.878 9.118-13.688 9.118-21.991 0-8.301-3.238-16.112-9.118-21.991-0.772-0.772-0.772-2.023 0-2.796 0.772-0.771 2.022-0.771 2.795 0 6.626 6.626 10.275 15.429 10.275 24.787 0 9.358-3.649 18.161-10.275 24.787C74.4 75.172 73.895 75.366 73.389 75.366z" fill="white"></path></g><g fill="white"><path d="M65.592 67.568c-0.506 0-1.012-0.192-1.396-0.578-0.773-0.772-0.773-2.023 0-2.796C67.989 60.399 70.08 55.359 70.08 50c0-5.359-2.09-10.4-5.885-14.195-0.773-0.772-0.773-2.024 0-2.796 0.771-0.771 2.022-0.771 2.795 0 4.541 4.542 7.042 10.577 7.042 16.991 0 6.415-2.501 12.448-7.043 16.99C66.604 67.376 66.098 67.568 65.592 67.568z" fill="white"></path></g><g fill="white"><path d="M34.406 67.568c-0.506 0-1.012-0.192-1.397-0.578-9.368-9.368-9.368-24.612 0-33.981 0.772-0.771 2.024-0.771 2.796 0 0.771 0.772 0.771 2.023 0 2.796-7.828 7.827-7.828 20.563 0 28.391 0.771 0.772 0.771 2.022 0 2.795C35.418 67.376 34.912 67.568 34.406 67.568z" fill="white"></path></g><polygon points="58.564,50 43.679,57.278 43.679,50 43.679,42.72 " fill="white"></polygon><path d="M61.502 38.497c-6.357-6.357-16.646-6.357-23.005 0-6.357 6.358-6.357 16.648 0.001 23.006 6.357 6.356 16.646 6.356 23.004 0C67.86 55.145 67.86 44.854 61.502 38.497zM58.729 58.729c-4.824 4.824-12.634 4.824-17.46 0-4.825-4.825-4.825-12.635 0-17.459 4.826-4.825 12.635-4.825 17.46 0C63.555 46.095 63.555 53.904 58.729 58.729z" fill="white"></path></svg></g></svg></g></svg></g><defs><mask></mask></defs><mask><g id="SvgjsG1133"><svg viewBox="0 0 395.52 79.54573041371067" height="79.54573041371067" width="395.52"><g><svg viewBox="0 0 571.1074744922507 114.85932747576791" height="79.54573041371067" width="395.52"><g transform="matrix(1,0,0,1,175.5874744922508,23.644726308987487)"><svg viewBox="0 0 395.5199999999999 67.56987485779294" height="67.56987485779294" width="395.5199999999999"><g id="SvgjsG1132"><svg viewBox="0 0 395.5199999999999 67.56987485779294" height="67.56987485779294" width="395.5199999999999" id="SvgjsSvg1131"><g><svg viewBox="0 0 395.5199999999999 67.56987485779294" height="67.56987485779294" width="395.5199999999999"><g transform="matrix(1,0,0,1,0,0)"><svg width="395.5199999999999" viewBox="1.4 -34.8 263.67 45.05" height="67.56987485779294" data-palette-color="url(#4f4ce4f2-d8c3-4f8a-af7a-0c23dab38247)"><g class="wordmark-text-0" data-fill-palette-color="primary" id="SvgjsG1130"><path d="M11.1-34.8Q13.7-34.8 15.6-33.85 17.5-32.9 19.25-31L19.25-31 17.6-29.35Q16.05-30.9 14.53-31.6 13-32.3 11.1-32.3L11.1-32.3Q8.6-32.3 7.03-30.68 5.45-29.05 5.45-26.5L5.45-26.5Q5.45-23.95 6.88-22.38 8.3-20.8 11.95-19.45L11.95-19.45Q16.15-17.85 18.13-15.6 20.1-13.35 20.1-9.35L20.1-9.35Q20.1-6.6 18.9-4.35 17.7-2.1 15.53-0.78 13.35 0.55 10.55 0.55L10.55 0.55Q7.75 0.55 5.53-0.55 3.3-1.65 1.4-3.75L1.4-3.75 3.05-5.4Q4.8-3.7 6.53-2.83 8.25-1.95 10.5-1.95L10.5-1.95Q13.5-1.95 15.3-3.95 17.1-5.95 17.1-9.25L17.1-9.25Q17.1-12.2 15.7-13.9 14.3-15.6 10.6-17.05L10.6-17.05Q6.3-18.7 4.42-20.88 2.55-23.05 2.55-26.4L2.55-26.4Q2.55-28.65 3.65-30.58 4.75-32.5 6.7-33.65 8.65-34.8 11.1-34.8L11.1-34.8ZM35.45-2.9L36.6-1.1Q34.5 0.55 31.95 0.55L31.95 0.55Q29.4 0.55 27.92-1.05 26.45-2.65 26.45-5.35L26.45-5.35 26.45-23.85 22.95-23.85 22.95-26.15 26.45-26.15 26.45-32.4 29.25-32.75 29.25-26.15 34.75-26.15 34.4-23.85 29.25-23.85 29.25-5.35Q29.25-3.7 30-2.78 30.75-1.85 32.25-1.85L32.25-1.85Q33.85-1.85 35.45-2.9L35.45-2.9ZM49.5-26.7Q50.4-26.7 51.5-26.4L51.5-26.4 51-23.8Q50.1-24.05 49.2-24.05L49.2-24.05Q47.05-24.05 45.7-22.18 44.35-20.3 43.5-16.5L43.5-16.5 43.5 0 40.7 0 40.7-26.15 43.1-26.15 43.35-20.9Q44.3-23.85 45.8-25.28 47.3-26.7 49.5-26.7L49.5-26.7ZM71.84-14.05Q71.84-12.95 71.74-11.95L71.74-11.95 57.44-11.95Q57.64-6.55 59.32-4.2 60.99-1.85 63.89-1.85L63.89-1.85Q65.59-1.85 66.89-2.43 68.19-3 69.59-4.25L69.59-4.25 70.99-2.6Q69.44-1.05 67.72-0.25 65.99 0.55 63.84 0.55L63.84 0.55Q59.49 0.55 57.02-2.88 54.54-6.3 54.54-12.85L54.54-12.85Q54.54-19.5 56.92-23.1 59.29-26.7 63.44-26.7L63.44-26.7Q67.54-26.7 69.69-23.48 71.84-20.25 71.84-14.05L71.84-14.05ZM69.09-14.15L69.09-14.95Q69.09-19.65 67.69-22 66.29-24.35 63.44-24.35L63.44-24.35Q57.79-24.35 57.44-14.15L57.44-14.15 69.09-14.15ZM92.09-5Q92.09-3.4 92.52-2.63 92.94-1.85 93.84-1.4L93.84-1.4 93.24 0.55Q91.64 0.15 90.79-0.8 89.94-1.75 89.69-3.55L89.69-3.55Q87.34 0.55 83.14 0.55L83.14 0.55Q80.04 0.55 78.19-1.6 76.34-3.75 76.34-7.25L76.34-7.25Q76.34-11.35 78.82-13.53 81.29-15.7 85.89-15.7L85.89-15.7 89.34-15.7 89.34-18.7Q89.34-21.55 88.22-22.95 87.09-24.35 84.69-24.35L84.69-24.35Q81.94-24.35 78.69-22.95L78.69-22.95 77.89-24.95Q81.64-26.7 84.94-26.7L84.94-26.7Q88.54-26.7 90.32-24.68 92.09-22.65 92.09-18.9L92.09-18.9 92.09-5ZM83.59-1.7Q87.39-1.7 89.34-6.55L89.34-6.55 89.34-13.65 86.14-13.65Q82.64-13.65 80.97-12.1 79.29-10.55 79.29-7.35L79.29-7.35Q79.29-4.6 80.42-3.15 81.54-1.7 83.59-1.7L83.59-1.7ZM121.64-26.7Q124.29-26.7 125.79-24.63 127.29-22.55 127.29-19.15L127.29-19.15 127.29 0 124.54 0 124.54-18.8Q124.54-21.6 123.66-23 122.79-24.4 121.14-24.4L121.14-24.4Q117.89-24.4 115.29-19L115.29-19 115.29 0 112.54 0 112.54-18.8Q112.54-21.6 111.64-23 110.74-24.4 109.09-24.4L109.09-24.4Q105.84-24.4 103.24-19L103.24-19 103.24 0 100.49 0 100.49-26.15 102.89-26.15 103.14-21.85Q105.84-26.7 109.64-26.7L109.64-26.7Q111.69-26.7 113.09-25.35 114.49-24 114.99-21.6L114.99-21.6Q117.74-26.7 121.64-26.7L121.64-26.7ZM141.04-26.7Q144.94-26.7 147.99-23.8L147.99-23.8 146.69-22.1Q145.24-23.3 143.96-23.85 142.69-24.4 141.09-24.4L141.09-24.4Q139.04-24.4 137.76-23.2 136.49-22 136.49-19.9L136.49-19.9Q136.49-18.1 137.61-17 138.74-15.9 141.74-14.8L141.74-14.8Q145.39-13.45 146.99-11.73 148.59-10 148.59-7L148.59-7Q148.59-3.55 146.31-1.5 144.04 0.55 140.64 0.55L140.64 0.55Q136.14 0.55 132.79-2.8L132.79-2.8 134.34-4.4Q135.79-3.1 137.26-2.43 138.74-1.75 140.59-1.75L140.59-1.75Q142.89-1.75 144.31-3.1 145.74-4.45 145.74-6.9L145.74-6.9Q145.74-8.45 145.24-9.43 144.74-10.4 143.54-11.18 142.34-11.95 140.09-12.8L140.09-12.8Q136.64-14.05 135.16-15.7 133.69-17.35 133.69-19.85L133.69-19.85Q133.69-22.8 135.79-24.75 137.89-26.7 141.04-26.7L141.04-26.7ZM163.98-26.7Q167.78-26.7 169.78-23.3 171.78-19.9 171.78-13.2L171.78-13.2Q171.78-6.6 169.61-3.03 167.43 0.55 163.53 0.55L163.53 0.55Q161.63 0.55 160.13-0.4 158.63-1.35 157.53-2.95L157.53-2.95 157.53 9.85 154.73 10.25 154.73-26.15 157.18-26.15 157.38-22.5Q159.93-26.7 163.98-26.7L163.98-26.7ZM163.08-1.85Q168.78-1.85 168.78-13.2L168.78-13.2Q168.78-19 167.46-21.68 166.13-24.35 163.48-24.35L163.48-24.35Q160.08-24.35 157.53-19.95L157.53-19.95 157.53-5.75Q159.83-1.85 163.08-1.85L163.08-1.85ZM194.18-14.05Q194.18-12.95 194.08-11.95L194.08-11.95 179.78-11.95Q179.98-6.55 181.66-4.2 183.33-1.85 186.23-1.85L186.23-1.85Q187.93-1.85 189.23-2.43 190.53-3 191.93-4.25L191.93-4.25 193.33-2.6Q191.78-1.05 190.06-0.25 188.33 0.55 186.18 0.55L186.18 0.55Q181.83 0.55 179.36-2.88 176.88-6.3 176.88-12.85L176.88-12.85Q176.88-19.5 179.26-23.1 181.63-26.7 185.78-26.7L185.78-26.7Q189.88-26.7 192.03-23.48 194.18-20.25 194.18-14.05L194.18-14.05ZM191.43-14.15L191.43-14.95Q191.43-19.65 190.03-22 188.63-24.35 185.78-24.35L185.78-24.35Q180.13-24.35 179.78-14.15L179.78-14.15 191.43-14.15ZM208.38-26.7Q210.18-26.7 211.63-26.08 213.08-25.45 214.48-24.05L214.48-24.05 213.13-22.35Q212.03-23.35 210.9-23.83 209.78-24.3 208.43-24.3L208.43-24.3Q205.43-24.3 203.73-21.55 202.03-18.8 202.03-12.95L202.03-12.95Q202.03-1.9 208.38-1.9L208.38-1.9Q210.93-1.9 213.23-3.95L213.23-3.95 214.63-2.25Q211.83 0.55 208.38 0.55L208.38 0.55Q203.98 0.55 201.5-2.83 199.03-6.2 199.03-12.9L199.03-12.9Q199.03-19.55 201.53-23.13 204.03-26.7 208.38-26.7L208.38-26.7ZM228.83-2.9L229.98-1.1Q227.88 0.55 225.33 0.55L225.33 0.55Q222.78 0.55 221.3-1.05 219.83-2.65 219.83-5.35L219.83-5.35 219.83-23.85 216.33-23.85 216.33-26.15 219.83-26.15 219.83-32.4 222.63-32.75 222.63-26.15 228.13-26.15 227.78-23.85 222.63-23.85 222.63-5.35Q222.63-3.7 223.38-2.78 224.13-1.85 225.63-1.85L225.63-1.85Q227.23-1.85 228.83-2.9L228.83-2.9ZM242.87-26.7Q243.77-26.7 244.87-26.4L244.87-26.4 244.37-23.8Q243.47-24.05 242.57-24.05L242.57-24.05Q240.42-24.05 239.07-22.18 237.72-20.3 236.87-16.5L236.87-16.5 236.87 0 234.07 0 234.07-26.15 236.47-26.15 236.72-20.9Q237.67-23.85 239.17-25.28 240.67-26.7 242.87-26.7L242.87-26.7ZM263.32-5Q263.32-3.4 263.75-2.63 264.17-1.85 265.07-1.4L265.07-1.4 264.47 0.55Q262.87 0.15 262.02-0.8 261.17-1.75 260.92-3.55L260.92-3.55Q258.57 0.55 254.37 0.55L254.37 0.55Q251.27 0.55 249.42-1.6 247.57-3.75 247.57-7.25L247.57-7.25Q247.57-11.35 250.05-13.53 252.52-15.7 257.12-15.7L257.12-15.7 260.57-15.7 260.57-18.7Q260.57-21.55 259.45-22.95 258.32-24.35 255.92-24.35L255.92-24.35Q253.17-24.35 249.92-22.95L249.92-22.95 249.12-24.95Q252.87-26.7 256.17-26.7L256.17-26.7Q259.77-26.7 261.55-24.68 263.32-22.65 263.32-18.9L263.32-18.9 263.32-5ZM254.82-1.7Q258.62-1.7 260.57-6.55L260.57-6.55 260.57-13.65 257.37-13.65Q253.87-13.65 252.2-12.1 250.52-10.55 250.52-7.35L250.52-7.35Q250.52-4.6 251.65-3.15 252.77-1.7 254.82-1.7L254.82-1.7Z" fill="black"></path></g></svg></g></svg></g></svg></g></svg></g><g><svg viewBox="0 0 159.63584871532248 114.85932747576791" height="114.85932747576791" width="159.63584871532248"><g><svg xmlns="http://www.w3.org/2000/svg" xmlns:xlink="http://www.w3.org/1999/xlink" version="1.1" x="0" y="0" viewBox="3.909 16.83700000000001 92.181 66.32499999999999" enable-background="new 0 0 100 100" xml:space="preserve" height="114.85932747576791" width="159.63584871532248" class="icon-icon-0" data-fill-palette-color="accent" id="SvgjsSvg1129"><g fill="black"><path d="M81.186 83.162c-0.507 0-1.013-0.193-1.398-0.579-0.771-0.772-0.771-2.024 0-2.795 7.964-7.965 12.35-18.543 12.35-29.788 0-11.246-4.386-21.825-12.35-29.789-0.771-0.771-0.771-2.023 0-2.795 0.771-0.772 2.024-0.772 2.796 0C91.293 26.127 96.09 37.697 96.09 50c0 12.302-4.797 23.873-13.507 32.583C82.197 82.969 81.69 83.162 81.186 83.162z" fill="black"></path></g><g fill="black"><path d="M18.814 83.162c-0.506 0-1.013-0.193-1.398-0.579C8.706 73.873 3.909 62.302 3.909 50c0-12.303 4.797-23.873 13.507-32.583 0.772-0.772 2.023-0.771 2.796 0 0.771 0.772 0.771 2.023 0 2.795C12.248 28.175 7.862 38.754 7.862 50c0 11.245 4.386 21.823 12.35 29.788 0.771 0.771 0.771 2.022 0 2.795C19.826 82.969 19.32 83.162 18.814 83.162z" fill="black"></path></g><g fill="black"><path d="M26.61 75.366c-0.506 0-1.012-0.194-1.397-0.58-6.627-6.626-10.275-15.429-10.275-24.787 0-9.358 3.648-18.161 10.275-24.787 0.771-0.772 2.023-0.771 2.795 0 0.771 0.772 0.771 2.024 0 2.796-5.879 5.879-9.117 13.689-9.117 21.991 0 8.303 3.238 16.113 9.117 21.991 0.772 0.772 0.772 2.024 0 2.796C27.622 75.172 27.116 75.366 26.61 75.366z" fill="black"></path></g><g fill="black"><path d="M73.389 75.366c-0.507 0-1.012-0.194-1.397-0.58-0.772-0.771-0.772-2.023 0-2.796 5.879-5.878 9.118-13.688 9.118-21.991 0-8.301-3.238-16.112-9.118-21.991-0.772-0.772-0.772-2.023 0-2.796 0.772-0.771 2.022-0.771 2.795 0 6.626 6.626 10.275 15.429 10.275 24.787 0 9.358-3.649 18.161-10.275 24.787C74.4 75.172 73.895 75.366 73.389 75.366z" fill="black"></path></g><g fill="black"><path d="M65.592 67.568c-0.506 0-1.012-0.192-1.396-0.578-0.773-0.772-0.773-2.023 0-2.796C67.989 60.399 70.08 55.359 70.08 50c0-5.359-2.09-10.4-5.885-14.195-0.773-0.772-0.773-2.024 0-2.796 0.771-0.771 2.022-0.771 2.795 0 4.541 4.542 7.042 10.577 7.042 16.991 0 6.415-2.501 12.448-7.043 16.99C66.604 67.376 66.098 67.568 65.592 67.568z" fill="black"></path></g><g fill="black"><path d="M34.406 67.568c-0.506 0-1.012-0.192-1.397-0.578-9.368-9.368-9.368-24.612 0-33.981 0.772-0.771 2.024-0.771 2.796 0 0.771 0.772 0.771 2.023 0 2.796-7.828 7.827-7.828 20.563 0 28.391 0.771 0.772 0.771 2.022 0 2.795C35.418 67.376 34.912 67.568 34.406 67.568z" fill="black"></path></g><polygon points="58.564,50 43.679,57.278 43.679,50 43.679,42.72 " fill="black"></polygon><path d="M61.502 38.497c-6.357-6.357-16.646-6.357-23.005 0-6.357 6.358-6.357 16.648 0.001 23.006 6.357 6.356 16.646 6.356 23.004 0C67.86 55.145 67.86 44.854 61.502 38.497zM58.729 58.729c-4.824 4.824-12.634 4.824-17.46 0-4.825-4.825-4.825-12.635 0-17.459 4.826-4.825 12.635-4.825 17.46 0C63.555 46.095 63.555 53.904 58.729 58.729z" fill="black"></path></svg></g></svg></g></svg></g><defs><mask></mask></defs></svg><rect width="395.52" height="79.54573041371067" fill="black" stroke="none" visibility="hidden"></rect></g></mask></svg><rect width="395.52" height="79.54573041371067" fill="black" stroke="none" visibility="hidden"></rect></g></mask><linearGradient x1="0" x2="1" y1="0.5" y2="0.5" id="1752458a-ff4f-49f4-b49a-fe4288efe4e3"><stop stop-color="#ffa62e" offset="0"></stop><stop stop-color="#f71b3d" offset="1"></stop></linearGradient><rect width="395.52" height="79.54573041371067" fill="url(#1752458a-ff4f-49f4-b49a-fe4288efe4e3)" mask="url(#bd8954ec-c112-403a-8c7e-4fdb216bcee1)" data-fill-palette-color="accent"></rect></svg><rect width="395.52" height="79.54573041371067" fill="none" stroke="none" visibility="hidden"></rect></g></svg></g></svg>